<?xml version="1.0" standalone="no"?>
<!DOCTYPE svg PUBLIC "-//W3C//DTD SVG 20010904//EN"
 "http://www.w3.org/TR/2001/REC-SVG-20010904/DTD/svg10.dtd">
<svg version="1.0" xmlns="http://www.w3.org/2000/svg"
 width="1280.000000pt" height="1063.000000pt" viewBox="0 0 1280.000000 1063.000000"
 preserveAspectRatio="xMidYMid meet">
<metadata>
Created by potrace 1.15, written by Peter Selinger 2001-2017
</metadata>
<g transform="translate(0.000000,1063.000000) scale(0.100000,-0.100000)"
fill="#000000" stroke="none">
<path d="M8815 10190 l-440 -440 440 -440 440 -440 440 440 440 440 -440 440
-440 440 -440 -440z"/>
<path d="M11627 9628 c-10 -306 -49 -538 -133 -785 -255 -761 -858 -1287
-1614 -1408 -310 -49 -760 -35 -1115 36 -459 92 -860 259 -1180 494 -120 88
-321 293 -391 400 -32 50 -125 220 -206 379 -163 320 -204 381 -355 527 -115
111 -159 145 -398 309 -238 163 -263 182 -268 203 -6 21 -33 22 -41 1 -8 -20
-36 23 273 -414 319 -452 519 -725 682 -931 415 -523 860 -967 1288 -1287 953
-712 2015 -1042 2881 -896 698 118 1356 682 1619 1389 80 216 118 402 128 630
12 285 -45 465 -216 677 -83 103 -643 666 -720 724 -60 45 -208 134 -222 134
-3 0 -9 -82 -12 -182z"/>
<path d="M1985 8244 c-517 -39 -870 -101 -1330 -234 -193 -56 -627 -201 -643
-215 -2 -2 39 -45 90 -96 61 -61 167 -192 303 -374 304 -406 452 -548 650
-625 42 -16 81 -23 130 -23 64 0 86 7 248 72 335 136 851 253 1427 323 167 21
753 17 910 -5 241 -34 417 -76 607 -144 l101 -37 7 -91 c8 -102 -7 -292 -31
-411 -65 -314 -244 -584 -549 -827 -115 -92 -604 -420 -800 -536 -255 -152
-496 -261 -696 -315 -187 -50 -254 -59 -484 -63 l-220 -4 -3 -27 c-6 -44 26
-87 109 -147 90 -65 134 -111 338 -354 310 -368 486 -508 726 -572 68 -19 108
-22 265 -23 158 -1 201 2 295 22 160 35 291 79 589 202 435 179 602 218 805
190 716 -99 1025 -839 726 -1737 -108 -323 -301 -615 -497 -750 -197 -136
-433 -219 -733 -258 -158 -20 -527 -20 -723 0 -527 55 -1147 200 -1615 376
-599 227 -1271 613 -1579 907 -103 98 -184 152 -231 152 -24 0 139 -186 373
-424 1304 -1330 2958 -2140 4480 -2192 903 -32 1483 314 1682 1001 60 208 73
312 73 615 0 151 -3 294 -8 317 l-7 42 232 198 c662 566 1094 868 1593 1113
661 325 1252 447 1935 400 594 -41 988 -170 1082 -354 19 -37 21 -58 21 -236
1 -178 -1 -200 -21 -259 -70 -196 -219 -310 -496 -381 -44 -11 -201 -41 -350
-66 -495 -83 -646 -139 -793 -297 -182 -196 -295 -517 -280 -796 13 -232 79
-343 396 -665 289 -293 442 -417 664 -536 72 -39 77 -40 77 -21 0 48 73 379
106 478 19 60 54 141 77 182 104 182 310 343 557 434 122 45 205 67 475 122
365 76 493 126 599 232 185 186 205 540 51 896 -79 182 -237 411 -444 641
-117 131 -893 889 -1051 1028 -393 344 -765 551 -1191 662 -284 74 -512 105
-844 113 -620 16 -1130 -94 -1680 -363 -272 -132 -486 -264 -1047 -642 -169
-114 -355 -236 -413 -271 l-105 -64 -73 69 c-39 39 -187 162 -327 274 -355
284 -432 367 -447 480 -8 58 30 125 140 253 100 115 235 323 328 502 68 133
84 215 83 435 -1 459 -197 879 -627 1350 -504 552 -1042 964 -1519 1164 -341
143 -592 185 -1133 191 -170 1 -332 1 -360 -1z"/>
</g>
</svg>
