<?xml version="1.0" encoding="UTF-8" standalone="no"?>
<svg
   xmlns:dc="http://purl.org/dc/elements/1.1/"
   xmlns:cc="http://creativecommons.org/ns#"
   xmlns:rdf="http://www.w3.org/1999/02/22-rdf-syntax-ns#"
   xmlns:svg="http://www.w3.org/2000/svg"
   xmlns="http://www.w3.org/2000/svg"
   xmlns:sodipodi="http://sodipodi.sourceforge.net/DTD/sodipodi-0.dtd"
   xmlns:inkscape="http://www.inkscape.org/namespaces/inkscape"
   width="248.87"
   height="215.85"
   version="1.1"
   viewBox="0 0 65.847 57.11"
   id="svg839"
   sodipodi:docname="Symbol of Islam.svg"
   inkscape:version="0.92.4 (5da689c313, 2019-01-14)">
  <metadata
     id="metadata845">
    <rdf:RDF>
      <cc:Work
         rdf:about="">
        <dc:format>image/svg+xml</dc:format>
        <dc:type
           rdf:resource="http://purl.org/dc/dcmitype/StillImage" />
        <dc:title></dc:title>
      </cc:Work>
    </rdf:RDF>
  </metadata>
  <defs
     id="defs843" />
  <sodipodi:namedview
     pagecolor="#ffffff"
     bordercolor="#666666"
     borderopacity="1"
     objecttolerance="10"
     gridtolerance="10"
     guidetolerance="10"
     inkscape:pageopacity="0"
     inkscape:pageshadow="2"
     inkscape:window-width="1366"
     inkscape:window-height="705"
     id="namedview841"
     showgrid="false"
     inkscape:zoom="1.2809821"
     inkscape:cx="49.320691"
     inkscape:cy="78.50259"
     inkscape:window-x="-8"
     inkscape:window-y="-8"
     inkscape:window-maximized="1"
     inkscape:current-layer="g837" />
  <g
     transform="translate(474.63 154.66)"
     id="g837">
    <g
       transform="translate(.52916 -.52917)"
       fill="#007f00"
       id="g835"
       style="fill:#000000;fill-opacity:1">
      <path
         d="m-447.14-153.6c-15.221 0.28952-27.484 12.732-27.484 28.021 0 15.471 12.559 28.029 28.029 28.029 7.2331 0 13.828-2.7474 18.802-7.2512-3.5065 2.0156-7.5741 3.1667-11.906 3.1667-13.211 0-23.928-10.718-23.928-23.928 0-13.211 10.718-23.928 23.928-23.928 4.3666 0 8.4635 1.1709 11.989 3.2163-4.983-4.5486-11.611-7.3256-18.885-7.3256-0.1813 0-0.36522-3e-3 -0.5457 0z"
         id="path831"
         style="fill:#000000;fill-opacity:1" />
      <path
         d="m-409.84-125.56-24.118 7.8365 14.906-20.516v25.359l-14.906-20.516z"
         id="path833"
         style="fill:#000000;fill-opacity:1" />
    </g>
  </g>
</svg>
