<?xml version="1.0" encoding="utf-8"?>
<svg viewBox="0 0 500 500" xmlns="http://www.w3.org/2000/svg">
  <g transform="matrix(0.139068, 0, 0, -0.139068, 39.392254, 1236.898804)" fill="#000000" stroke="none" style="">
    <path d="M 646.588 8427.02 L 518.43 8203.901 L 260.715 8203.2 L 3 8202.5 L 131.577 7978.82 L 260.295 7755 L 131.577 7531.32 L 3 7307.5 L 260.715 7306.8 L 518.43 7306.099 L 646.588 7083.12 C 717.179 6960.425 775.305 6860 775.725 6860 C 776.146 6860 834.272 6960.425 904.863 7083.12 L 1033.02 7306.099 L 1290.736 7306.8 L 1548.451 7307.5 L 1419.873 7531.32 L 1291.156 7755 L 1419.873 7978.82 L 1548.451 8202.5 L 1290.736 8203.2 L 1033.02 8203.901 L 904.723 8427.02 C 834.272 8549.575 776.146 8650 775.725 8650 C 775.305 8650 717.179 8549.575 646.588 8427.02 Z M 839.734 8314.13 L 903.182 8203.901 L 839.454 8203.48 C 804.438 8203.34 747.013 8203.34 711.997 8203.48 L 648.268 8203.901 L 711.717 8314.13 C 746.452 8374.777 775.305 8424.499 775.725 8424.499 C 776.146 8424.499 804.998 8374.777 839.734 8314.13 Z M 451.901 8088.489 C 449.66 8082.606 325.284 7868.731 324.584 7869.571 C 324.023 7870.131 295.731 7919.153 261.696 7978.4 C 227.66 8037.786 199.088 8087.088 198.387 8088.069 C 197.267 8089.329 222.618 8089.75 324.724 8089.75 C 396.716 8089.75 452.181 8089.189 451.901 8088.489 Z M 1065.095 7922.375 C 1117.758 7830.774 1160.898 7755.42 1160.898 7755 C 1160.898 7754.58 1117.758 7679.366 1065.095 7587.625 L 969.292 7420.951 L 775.725 7420.951 L 582.299 7420.951 L 486.356 7587.625 C 431.732 7682.728 390.833 7755.14 391.254 7756.261 C 391.674 7757.381 431.311 7826.432 479.073 7909.629 C 526.974 7992.966 569.833 8067.48 574.455 8075.463 L 582.719 8089.75 L 776.005 8089.47 L 969.152 8089.049 L 1065.095 7922.375 Z M 1353.063 8088.069 C 1352.363 8087.088 1323.79 8037.786 1289.755 7978.4 C 1255.72 7919.153 1227.427 7870.131 1226.867 7869.571 C 1226.167 7868.731 1101.931 8082.466 1099.55 8088.489 C 1099.27 8089.189 1156.135 8089.75 1226.727 8089.75 C 1328.833 8089.75 1354.184 8089.329 1353.063 8088.069 Z M 389.013 7531.04 C 423.748 7470.813 452.181 7421.091 452.181 7420.811 C 452.181 7420.531 394.755 7420.25 324.584 7420.25 C 222.618 7420.25 197.267 7420.671 198.387 7422.071 C 199.088 7422.912 227.66 7472.354 261.696 7531.6 C 295.731 7590.987 324.023 7640.009 324.304 7640.569 C 324.724 7641.269 325.144 7641.549 325.424 7641.269 C 325.704 7640.989 354.277 7591.407 389.013 7531.04 Z M 1289.755 7531.6 C 1323.79 7472.354 1352.363 7422.912 1353.063 7422.071 C 1354.184 7420.671 1328.833 7420.25 1226.727 7420.25 C 1156.556 7420.25 1099.27 7420.811 1099.55 7421.511 C 1101.931 7427.534 1226.167 7641.269 1226.867 7640.429 C 1227.427 7639.869 1255.72 7590.987 1289.755 7531.6 Z M 898 7297.275 C 878.531 7262.54 776.286 7085.501 775.725 7085.501 C 775.165 7085.501 672.919 7262.54 653.451 7297.275 L 647.988 7306.8 L 775.725 7306.8 L 903.462 7306.8 L 898 7297.275 Z"/>
  </g>
  <title>Christian Cross</title>
  <path fill="black" d="M 276.415 267.863 L 347.358 267.863 L 347.358 188.187 L 382.83 188.187 L 382.83 267.863 L 453.773 267.863 L 453.773 307.701 L 382.83 307.701 L 382.83 467.054 L 347.358 467.054 L 347.358 307.701 L 276.415 307.701 L 276.415 267.863 Z" style=""/>
</svg>